<svg xmlns="http://www.w3.org/2000/svg" viewBox="0 0 1440 320"><path fill="#e7008a" fill-opacity="1" d="M0,288L0,256L84.7,256L84.7,128L169.4,128L169.4,256L254.1,256L254.1,192L338.8,192L338.8,288L423.5,288L423.5,96L508.2,96L508.2,192L592.9,192L592.9,256L677.6,256L677.6,160L762.4,160L762.4,96L847.1,96L847.1,160L931.8,160L931.8,288L1016.5,288L1016.5,224L1101.2,224L1101.2,160L1185.9,160L1185.9,32L1270.6,32L1270.6,128L1355.3,128L1355.3,192L1440,192L1440,320L1355.3,320L1355.3,320L1270.6,320L1270.6,320L1185.9,320L1185.9,320L1101.2,320L1101.2,320L1016.5,320L1016.5,320L931.8,320L931.8,320L847.1,320L847.1,320L762.4,320L762.4,320L677.6,320L677.6,320L592.9,320L592.9,320L508.2,320L508.2,320L423.5,320L423.5,320L338.8,320L338.8,320L254.1,320L254.1,320L169.4,320L169.4,320L84.7,320L84.7,320L0,320L0,320Z"></path></svg>