<svg xmlns="http://www.w3.org/2000/svg" viewBox="0 0 1440 320"><path fill="#80DDFF" fill-opacity="1" d="M0,288L0,256L84.7,256L84.7,128L169.4,128L169.4,256L254.1,256L254.1,192L338.8,192L338.8,288L423.5,288L423.5,96L508.2,96L508.2,192L592.9,192L592.9,256L677.6,256L677.6,160L762.4,160L762.4,96L847.1,96L847.1,160L931.8,160L931.8,288L1016.5,288L1016.5,224L1101.2,224L1101.2,160L1185.9,160L1185.9,32L1270.6,32L1270.6,128L1355.3,128L1355.3,192L1440,192L1440,0L1355.3,0L1355.3,0L1270.6,0L1270.6,0L1185.9,0L1185.9,0L1101.2,0L1101.2,0L1016.5,0L1016.5,0L931.8,0L931.8,0L847.1,0L847.1,0L762.4,0L762.4,0L677.6,0L677.6,0L592.9,0L592.9,0L508.2,0L508.2,0L423.5,0L423.5,0L338.8,0L338.8,0L254.1,0L254.1,0L169.4,0L169.4,0L84.7,0L84.7,0L0,0L0,0Z"></path></svg>